<?xml version="1.0" encoding="UTF-8" ?>
<svg version="1.1" width="128" height="128" xmlns="http://www.w3.org/2000/svg" shape-rendering="crispEdges">
<rect x="54" y="13" width="3" height="17" fill="#D0FFEA" />
<rect x="53" y="14" width="1" height="5" fill="#D0FFEA" />
<rect x="57" y="14" width="1" height="8" fill="#D0FFEA" />
<rect x="51" y="15" width="2" height="1" fill="#D0FFEA" />
<rect x="52" y="16" width="1" height="6" fill="#D0FFEA" />
<rect x="51" y="17" width="1" height="9" fill="#D0FFEA" />
<rect x="71" y="17" width="6" height="11" fill="#FFFFFF" />
<rect x="65" y="18" width="6" height="14" fill="#FFFFFF" />
<rect x="77" y="18" width="3" height="8" fill="#FFFFFF" />
<rect x="53" y="19" width="1" height="3" fill="#000000" />
<rect x="64" y="19" width="1" height="17" fill="#FFFFFF" />
<rect x="80" y="19" width="2" height="6" fill="#FFFFFF" />
<rect x="62" y="20" width="2" height="16" fill="#FFFFFF" />
<rect x="82" y="20" width="1" height="4" fill="#FFFFFF" />
<rect x="50" y="21" width="1" height="9" fill="#D0FFEA" />
<rect x="61" y="21" width="1" height="16" fill="#FFFFFF" />
<rect x="83" y="21" width="1" height="3" fill="#FFFFFF" />
<rect x="52" y="22" width="1" height="7" fill="#000000" />
<rect x="53" y="22" width="1" height="1" fill="#D0FFEA" />
<rect x="59" y="22" width="2" height="16" fill="#FFFFFF" />
<rect x="49" y="23" width="1" height="11" fill="#D0FFEA" />
<rect x="53" y="23" width="1" height="2" fill="#000000" />
<rect x="57" y="23" width="2" height="16" fill="#FFFFFF" />
<rect x="84" y="23" width="1" height="1" fill="#B29476" />
<rect x="82" y="24" width="2" height="1" fill="#B29476" />
<rect x="84" y="24" width="2" height="21" fill="#FFFFFF" />
<rect x="53" y="25" width="1" height="10" fill="#D0FFEA" />
<rect x="80" y="25" width="1" height="1" fill="#FFFFFF" />
<rect x="81" y="25" width="1" height="1" fill="#B29476" />
<rect x="82" y="25" width="2" height="21" fill="#FFFFFF" />
<rect x="48" y="26" width="1" height="13" fill="#D0FFEA" />
<rect x="51" y="26" width="1" height="7" fill="#000000" />
<rect x="77" y="26" width="2" height="1" fill="#FFFFFF" />
<rect x="79" y="26" width="2" height="1" fill="#B29476" />
<rect x="81" y="26" width="1" height="21" fill="#FFFFFF" />
<rect x="86" y="26" width="1" height="18" fill="#FFFFFF" />
<rect x="47" y="27" width="1" height="1" fill="#D0FFEA" />
<rect x="77" y="27" width="2" height="1" fill="#B29476" />
<rect x="79" y="27" width="2" height="21" fill="#FFFFFF" />
<rect x="87" y="27" width="1" height="17" fill="#FFFFFF" />
<rect x="71" y="28" width="5" height="1" fill="#FFFFFF" />
<rect x="76" y="28" width="1" height="1" fill="#B29476" />
<rect x="77" y="28" width="2" height="21" fill="#FFFFFF" />
<rect x="47" y="29" width="1" height="1" fill="#D0FFEA" />
<rect x="52" y="29" width="1" height="7" fill="#D0FFEA" />
<rect x="71" y="29" width="3" height="1" fill="#FFFFFF" />
<rect x="74" y="29" width="2" height="1" fill="#B29476" />
<rect x="76" y="29" width="1" height="18" fill="#FFFFFF" />
<rect x="88" y="29" width="1" height="14" fill="#FFFFFF" />
<rect x="46" y="30" width="2" height="1" fill="#FFFFFF" />
<rect x="50" y="30" width="1" height="7" fill="#000000" />
<rect x="54" y="30" width="2" height="2" fill="#D0FFEA" />
<rect x="56" y="30" width="1" height="11" fill="#FFFFFF" />
<rect x="71" y="30" width="2" height="1" fill="#FFFFFF" />
<rect x="73" y="30" width="1" height="1" fill="#B29476" />
<rect x="74" y="30" width="2" height="17" fill="#FFFFFF" />
<rect x="89" y="30" width="1" height="13" fill="#FFFFFF" />
<rect x="45" y="31" width="2" height="10" fill="#FFFFFF" />
<rect x="47" y="31" width="1" height="1" fill="#D0FFEA" />
<rect x="71" y="31" width="2" height="1" fill="#B29476" />
<rect x="73" y="31" width="1" height="16" fill="#FFFFFF" />
<rect x="43" y="32" width="2" height="8" fill="#FFFFFF" />
<rect x="47" y="32" width="1" height="11" fill="#FFFFFF" />
<rect x="54" y="32" width="1" height="2" fill="#D0FFEA" />
<rect x="55" y="32" width="1" height="9" fill="#FFFFFF" />
<rect x="65" y="32" width="4" height="1" fill="#FFFFFF" />
<rect x="69" y="32" width="2" height="1" fill="#B29476" />
<rect x="71" y="32" width="2" height="15" fill="#FFFFFF" />
<rect x="90" y="32" width="1" height="10" fill="#FFFFFF" />
<rect x="42" y="33" width="1" height="6" fill="#FFFFFF" />
<rect x="51" y="33" width="1" height="4" fill="#D0FFEA" />
<rect x="65" y="33" width="3" height="1" fill="#FFFFFF" />
<rect x="68" y="33" width="1" height="1" fill="#B29476" />
<rect x="69" y="33" width="2" height="14" fill="#FFFFFF" />
<rect x="40" y="34" width="2" height="5" fill="#FFFFFF" />
<rect x="49" y="34" width="1" height="1" fill="#000000" />
<rect x="54" y="34" width="1" height="8" fill="#FFFFFF" />
<rect x="65" y="34" width="1" height="1" fill="#FFFFFF" />
<rect x="66" y="34" width="2" height="1" fill="#B29476" />
<rect x="68" y="34" width="1" height="13" fill="#FFFFFF" />
<rect x="91" y="34" width="1" height="7" fill="#FFFFFF" />
<rect x="39" y="35" width="1" height="5" fill="#FFFFFF" />
<rect x="49" y="35" width="1" height="1" fill="#D0FFEA" />
<rect x="53" y="35" width="1" height="7" fill="#FFFFFF" />
<rect x="65" y="35" width="1" height="1" fill="#B29476" />
<rect x="66" y="35" width="2" height="12" fill="#FFFFFF" />
<rect x="92" y="35" width="1" height="6" fill="#FFFFFF" />
<rect x="37" y="36" width="2" height="3" fill="#FFFFFF" />
<rect x="49" y="36" width="1" height="3" fill="#000000" />
<rect x="52" y="36" width="1" height="7" fill="#FFFFFF" />
<rect x="62" y="36" width="1" height="1" fill="#FFFFFF" />
<rect x="63" y="36" width="2" height="1" fill="#B29476" />
<rect x="65" y="36" width="1" height="11" fill="#FFFFFF" />
<rect x="35" y="37" width="2" height="6" fill="#FFFFFF" />
<rect x="50" y="37" width="1" height="1" fill="#D0FFEA" />
<rect x="51" y="37" width="1" height="7" fill="#FFFFFF" />
<rect x="61" y="37" width="2" height="1" fill="#B29476" />
<rect x="63" y="37" width="2" height="10" fill="#FFFFFF" />
<rect x="93" y="37" width="1" height="3" fill="#FFFFFF" />
<rect x="34" y="38" width="1" height="7" fill="#FFFFFF" />
<rect x="50" y="38" width="1" height="1" fill="#000000" />
<rect x="59" y="38" width="1" height="1" fill="#FFFFFF" />
<rect x="60" y="38" width="1" height="1" fill="#B29476" />
<rect x="61" y="38" width="2" height="9" fill="#FFFFFF" />
<rect x="94" y="38" width="1" height="2" fill="#FFFFFF" />
<rect x="32" y="39" width="2" height="6" fill="#FFFFFF" />
<rect x="37" y="39" width="1" height="2" fill="#FFFFFF" />
<rect x="38" y="39" width="1" height="6" fill="#F84444" />
<rect x="40" y="39" width="1" height="5" fill="#F84444" />
<rect x="41" y="39" width="1" height="1" fill="#FFFFFF" />
<rect x="42" y="39" width="1" height="5" fill="#F84444" />
<rect x="48" y="39" width="3" height="1" fill="#FFFFFF" />
<rect x="57" y="39" width="1" height="1" fill="#FFFFFF" />
<rect x="58" y="39" width="2" height="1" fill="#B29476" />
<rect x="60" y="39" width="1" height="11" fill="#FFFFFF" />
<rect x="95" y="39" width="1" height="1" fill="#B29476" />
<rect x="31" y="40" width="1" height="5" fill="#FFFFFF" />
<rect x="39" y="40" width="1" height="4" fill="#F84444" />
<rect x="41" y="40" width="1" height="4" fill="#F84444" />
<rect x="43" y="40" width="2" height="2" fill="#F84444" />
<rect x="48" y="40" width="1" height="2" fill="#000000" />
<rect x="49" y="40" width="2" height="4" fill="#FFFFFF" />
<rect x="57" y="40" width="1" height="1" fill="#B29476" />
<rect x="58" y="40" width="2" height="10" fill="#FFFFFF" />
<rect x="93" y="40" width="2" height="1" fill="#B29476" />
<rect x="95" y="40" width="1" height="19" fill="#FFFFFF" />
<rect x="29" y="41" width="2" height="3" fill="#FFFFFF" />
<rect x="37" y="41" width="1" height="6" fill="#F84444" />
<rect x="45" y="41" width="1" height="1" fill="#F84444" />
<rect x="46" y="41" width="1" height="2" fill="#F8F644" />
<rect x="55" y="41" width="2" height="1" fill="#B29476" />
<rect x="57" y="41" width="1" height="21" fill="#FFFFFF" />
<rect x="91" y="41" width="2" height="1" fill="#B29476" />
<rect x="93" y="41" width="2" height="19" fill="#FFFFFF" />
<rect x="96" y="41" width="1" height="18" fill="#FFFFFF" />
<rect x="27" y="42" width="2" height="2" fill="#FFFFFF" />
<rect x="43" y="42" width="1" height="1" fill="#F84444" />
<rect x="44" y="42" width="2" height="2" fill="#F8F644" />
<rect x="48" y="42" width="1" height="2" fill="#FFFFFF" />
<rect x="53" y="42" width="2" height="1" fill="#B29476" />
<rect x="55" y="42" width="2" height="20" fill="#FFFFFF" />
<rect x="90" y="42" width="1" height="1" fill="#B29476" />
<rect x="91" y="42" width="2" height="19" fill="#FFFFFF" />
<rect x="26" y="43" width="1" height="5" fill="#FFFFFF" />
<rect x="35" y="43" width="2" height="1" fill="#F84444" />
<rect x="43" y="43" width="1" height="1" fill="#F8F644" />
<rect x="46" y="43" width="1" height="2" fill="#271F1B" />
<rect x="47" y="43" width="1" height="3" fill="#F8F644" />
<rect x="52" y="43" width="1" height="1" fill="#B29476" />
<rect x="53" y="43" width="2" height="21" fill="#FFFFFF" />
<rect x="88" y="43" width="2" height="1" fill="#B29476" />
<rect x="90" y="43" width="1" height="19" fill="#FFFFFF" />
<rect x="97" y="43" width="1" height="15" fill="#FFFFFF" />
<rect x="24" y="44" width="2" height="4" fill="#FFFFFF" />
<rect x="27" y="44" width="4" height="1" fill="#F84444" />
<rect x="35" y="44" width="1" height="1" fill="#FFFFFF" />
<rect x="36" y="44" width="1" height="3" fill="#F84444" />
<rect x="39" y="44" width="2" height="2" fill="#F8F644" />
<rect x="41" y="44" width="3" height="2" fill="#271F1B" />
<rect x="44" y="44" width="1" height="1" fill="#F8F644" />
<rect x="45" y="44" width="1" height="1" fill="#271F1B" />
<rect x="48" y="44" width="1" height="1" fill="#F8F644" />
<rect x="49" y="44" width="1" height="1" fill="#FFFFFF" />
<rect x="50" y="44" width="2" height="1" fill="#B29476" />
<rect x="52" y="44" width="1" height="21" fill="#FFFFFF" />
<rect x="86" y="44" width="2" height="1" fill="#B29476" />
<rect x="88" y="44" width="2" height="19" fill="#FFFFFF" />
<rect x="98" y="44" width="1" height="14" fill="#FFFFFF" />
<rect x="23" y="45" width="1" height="1" fill="#FFFFFF" />
<rect x="27" y="45" width="1" height="1" fill="#FFFFFF" />
<rect x="28" y="45" width="5" height="5" fill="#F84444" />
<rect x="33" y="45" width="1" height="1" fill="#FFFFFF" />
<rect x="34" y="45" width="2" height="3" fill="#F84444" />
<rect x="38" y="45" width="1" height="7" fill="#F8F644" />
<rect x="44" y="45" width="1" height="1" fill="#271F1B" />
<rect x="45" y="45" width="2" height="2" fill="#F8F644" />
<rect x="48" y="45" width="1" height="1" fill="#F1EBDB" />
<rect x="49" y="45" width="1" height="1" fill="#B29476" />
<rect x="50" y="45" width="2" height="20" fill="#FFFFFF" />
<rect x="84" y="45" width="1" height="1" fill="#FFFFFF" />
<rect x="85" y="45" width="1" height="1" fill="#B29476" />
<rect x="86" y="45" width="2" height="19" fill="#FFFFFF" />
<rect x="21" y="46" width="3" height="2" fill="#F84444" />
<rect x="27" y="46" width="1" height="4" fill="#F84444" />
<rect x="33" y="46" width="1" height="3" fill="#F84444" />
<rect x="39" y="46" width="1" height="5" fill="#F8F644" />
<rect x="40" y="46" width="2" height="1" fill="#271F1B" />
<rect x="42" y="46" width="3" height="2" fill="#F8F644" />
<rect x="47" y="46" width="2" height="1" fill="#B29476" />
<rect x="49" y="46" width="1" height="21" fill="#FFFFFF" />
<rect x="82" y="46" width="1" height="1" fill="#FFFFFF" />
<rect x="83" y="46" width="2" height="1" fill="#B29476" />
<rect x="85" y="46" width="1" height="19" fill="#FFFFFF" />
<rect x="99" y="46" width="1" height="11" fill="#FFFFFF" />
<rect x="20" y="47" width="1" height="5" fill="#F1EBDB" />
<rect x="36" y="47" width="2" height="1" fill="#F8F644" />
<rect x="40" y="47" width="1" height="4" fill="#F8F644" />
<rect x="41" y="47" width="1" height="1" fill="#271F1B" />
<rect x="45" y="47" width="2" height="1" fill="#B29476" />
<rect x="47" y="47" width="2" height="20" fill="#FFFFFF" />
<rect x="61" y="47" width="1" height="3" fill="#FFFFFF" />
<rect x="62" y="47" width="15" height="3" fill="#000000" />
<rect x="81" y="47" width="2" height="1" fill="#B29476" />
<rect x="83" y="47" width="2" height="19" fill="#FFFFFF" />
<rect x="100" y="47" width="1" height="9" fill="#FFFFFF" />
<rect x="19" y="48" width="1" height="1" fill="#F1EBDB" />
<rect x="21" y="48" width="1" height="6" fill="#F1EBDB" />
<rect x="22" y="48" width="3" height="4" fill="#F84444" />
<rect x="25" y="48" width="1" height="1" fill="#FFFFFF" />
<rect x="26" y="48" width="1" height="1" fill="#F84444" />
<rect x="34" y="48" width="1" height="1" fill="#F84444" />
<rect x="35" y="48" width="2" height="1" fill="#F8F644" />
<rect x="37" y="48" width="1" height="1" fill="#271F1B" />
<rect x="41" y="48" width="3" height="1" fill="#F8F644" />
<rect x="44" y="48" width="1" height="1" fill="#B29476" />
<rect x="45" y="48" width="2" height="20" fill="#FFFFFF" />
<rect x="79" y="48" width="1" height="1" fill="#FFFFFF" />
<rect x="80" y="48" width="1" height="1" fill="#B29476" />
<rect x="81" y="48" width="2" height="19" fill="#FFFFFF" />
<rect x="25" y="49" width="1" height="1" fill="#F84444" />
<rect x="26" y="49" width="1" height="8" fill="#F8F644" />
<rect x="33" y="49" width="4" height="1" fill="#271F1B" />
<rect x="37" y="49" width="1" height="3" fill="#F8F644" />
<rect x="41" y="49" width="1" height="1" fill="#F8F644" />
<rect x="42" y="49" width="2" height="1" fill="#B29476" />
<rect x="44" y="49" width="1" height="21" fill="#FFFFFF" />
<rect x="77" y="49" width="1" height="1" fill="#FFFFFF" />
<rect x="78" y="49" width="2" height="1" fill="#B29476" />
<rect x="80" y="49" width="1" height="19" fill="#FFFFFF" />
<rect x="101" y="49" width="1" height="7" fill="#FFFFFF" />
<rect x="19" y="50" width="1" height="1" fill="#F1EBDB" />
<rect x="25" y="50" width="1" height="8" fill="#F8F644" />
<rect x="27" y="50" width="2" height="2" fill="#F8F644" />
<rect x="29" y="50" width="3" height="1" fill="#F84444" />
<rect x="32" y="50" width="2" height="1" fill="#F8F644" />
<rect x="34" y="50" width="1" height="1" fill="#271F1B" />
<rect x="35" y="50" width="2" height="3" fill="#F8F644" />
<rect x="41" y="50" width="1" height="1" fill="#B29476" />
<rect x="42" y="50" width="2" height="20" fill="#FFFFFF" />
<rect x="58" y="50" width="1" height="11" fill="#FFFFFF" />
<rect x="59" y="50" width="3" height="19" fill="#000000" />
<rect x="62" y="50" width="15" height="5" fill="#F84444" />
<rect x="77" y="50" width="3" height="19" fill="#000000" />
<rect x="102" y="50" width="1" height="5" fill="#FFFFFF" />
<rect x="29" y="51" width="4" height="1" fill="#F8F644" />
<rect x="33" y="51" width="1" height="2" fill="#271F1B" />
<rect x="34" y="51" width="1" height="3" fill="#F8F644" />
<rect x="39" y="51" width="2" height="1" fill="#B29476" />
<rect x="41" y="51" width="1" height="20" fill="#FFFFFF" />
<rect x="22" y="52" width="1" height="4" fill="#F1EBDB" />
<rect x="23" y="52" width="2" height="1" fill="#F84444" />
<rect x="27" y="52" width="1" height="1" fill="#271F1B" />
<rect x="28" y="52" width="4" height="1" fill="#F8F644" />
<rect x="32" y="52" width="1" height="1" fill="#271F1B" />
<rect x="37" y="52" width="2" height="1" fill="#B29476" />
<rect x="39" y="52" width="1" height="2" fill="#F8F644" />
<rect x="40" y="52" width="1" height="20" fill="#FFFFFF" />
<rect x="103" y="52" width="1" height="3" fill="#FFFFFF" />
<rect x="23" y="53" width="1" height="4" fill="#F1EBDB" />
<rect x="24" y="53" width="1" height="2" fill="#F84444" />
<rect x="27" y="53" width="1" height="4" fill="#F8F644" />
<rect x="28" y="53" width="2" height="1" fill="#271F1B" />
<rect x="30" y="53" width="4" height="2" fill="#F8F644" />
<rect x="35" y="53" width="1" height="1" fill="#F8F644" />
<rect x="36" y="53" width="1" height="1" fill="#B29476" />
<rect x="37" y="53" width="2" height="1" fill="#F8F644" />
<rect x="28" y="54" width="1" height="3" fill="#F8F644" />
<rect x="29" y="54" width="1" height="1" fill="#271F1B" />
<rect x="34" y="54" width="2" height="1" fill="#B29476" />
<rect x="36" y="54" width="2" height="1" fill="#F8F644" />
<rect x="38" y="54" width="2" height="19" fill="#FFFFFF" />
<rect x="104" y="54" width="1" height="1" fill="#B29476" />
<rect x="24" y="55" width="1" height="2" fill="#F8F644" />
<rect x="29" y="55" width="1" height="2" fill="#F8F644" />
<rect x="30" y="55" width="1" height="1" fill="#271F1B" />
<rect x="31" y="55" width="1" height="1" fill="#F1EBDB" />
<rect x="32" y="55" width="1" height="1" fill="#F8F644" />
<rect x="33" y="55" width="1" height="1" fill="#B29476" />
<rect x="34" y="55" width="3" height="1" fill="#F8F644" />
<rect x="37" y="55" width="1" height="19" fill="#FFFFFF" />
<rect x="62" y="55" width="6" height="14" fill="#F84444" />
<rect x="68" y="55" width="3" height="3" fill="#000000" />
<rect x="71" y="55" width="6" height="6" fill="#F84444" />
<rect x="102" y="55" width="2" height="1" fill="#B29476" />
<rect x="104" y="55" width="2" height="15" fill="#FFFFFF" />
<rect x="30" y="56" width="1" height="1" fill="#F1EBDB" />
<rect x="31" y="56" width="2" height="1" fill="#B29476" />
<rect x="33" y="56" width="4" height="16" fill="#FFFFFF" />
<rect x="100" y="56" width="2" height="1" fill="#B29476" />
<rect x="102" y="56" width="2" height="15" fill="#FFFFFF" />
<rect x="24" y="57" width="1" height="2" fill="#F1EBDB" />
<rect x="26" y="57" width="3" height="1" fill="#F1EBDB" />
<rect x="29" y="57" width="2" height="1" fill="#B29476" />
<rect x="31" y="57" width="2" height="12" fill="#FFFFFF" />
<rect x="99" y="57" width="1" height="1" fill="#B29476" />
<rect x="100" y="57" width="2" height="15" fill="#FFFFFF" />
<rect x="106" y="57" width="1" height="12" fill="#FFFFFF" />
<rect x="25" y="58" width="3" height="1" fill="#F1EBDB" />
<rect x="28" y="58" width="1" height="1" fill="#B29476" />
<rect x="29" y="58" width="2" height="8" fill="#FFFFFF" />
<rect x="68" y="58" width="3" height="6" fill="#F84444" />
<rect x="97" y="58" width="2" height="1" fill="#B29476" />
<rect x="99" y="58" width="1" height="15" fill="#FFFFFF" />
<rect x="107" y="58" width="1" height="10" fill="#FFFFFF" />
<rect x="25" y="59" width="1" height="1" fill="#F1EBDB" />
<rect x="26" y="59" width="2" height="1" fill="#B29476" />
<rect x="28" y="59" width="1" height="6" fill="#FFFFFF" />
<rect x="95" y="59" width="2" height="1" fill="#B29476" />
<rect x="97" y="59" width="2" height="15" fill="#FFFFFF" />
<rect x="25" y="60" width="1" height="1" fill="#B29476" />
<rect x="26" y="60" width="2" height="2" fill="#FFFFFF" />
<rect x="93" y="60" width="1" height="1" fill="#FFFFFF" />
<rect x="94" y="60" width="1" height="1" fill="#B29476" />
<rect x="95" y="60" width="2" height="15" fill="#FFFFFF" />
<rect x="108" y="60" width="1" height="8" fill="#FFFFFF" />
<rect x="58" y="61" width="1" height="1" fill="#B29476" />
<rect x="71" y="61" width="3" height="8" fill="#F84444" />
<rect x="74" y="61" width="3" height="3" fill="#000000" />
<rect x="91" y="61" width="1" height="1" fill="#FFFFFF" />
<rect x="92" y="61" width="2" height="1" fill="#B29476" />
<rect x="94" y="61" width="1" height="15" fill="#FFFFFF" />
<rect x="109" y="61" width="1" height="6" fill="#FFFFFF" />
<rect x="27" y="62" width="1" height="1" fill="#FFFFFF" />
<rect x="55" y="62" width="1" height="1" fill="#FFFFFF" />
<rect x="56" y="62" width="2" height="1" fill="#B29476" />
<rect x="58" y="62" width="1" height="19" fill="#FFFFFF" />
<rect x="90" y="62" width="2" height="1" fill="#B29476" />
<rect x="92" y="62" width="2" height="15" fill="#FFFFFF" />
<rect x="55" y="63" width="1" height="1" fill="#B29476" />
<rect x="56" y="63" width="2" height="19" fill="#FFFFFF" />
<rect x="88" y="63" width="2" height="1" fill="#B29476" />
<rect x="90" y="63" width="2" height="15" fill="#FFFFFF" />
<rect x="110" y="63" width="1" height="4" fill="#FFFFFF" />
<rect x="53" y="64" width="2" height="1" fill="#B29476" />
<rect x="55" y="64" width="1" height="19" fill="#FFFFFF" />
<rect x="68" y="64" width="3" height="8" fill="#000000" />
<rect x="74" y="64" width="3" height="5" fill="#F84444" />
<rect x="86" y="64" width="1" height="1" fill="#FFFFFF" />
<rect x="87" y="64" width="1" height="1" fill="#B29476" />
<rect x="88" y="64" width="2" height="15" fill="#FFFFFF" />
<rect x="111" y="64" width="1" height="2" fill="#FFFFFF" />
<rect x="50" y="65" width="1" height="1" fill="#FFFFFF" />
<rect x="51" y="65" width="2" height="1" fill="#B29476" />
<rect x="53" y="65" width="2" height="19" fill="#FFFFFF" />
<rect x="85" y="65" width="2" height="1" fill="#B29476" />
<rect x="87" y="65" width="1" height="15" fill="#FFFFFF" />
<rect x="29" y="66" width="1" height="1" fill="#B29476" />
<rect x="30" y="66" width="1" height="2" fill="#FFFFFF" />
<rect x="50" y="66" width="1" height="1" fill="#B29476" />
<rect x="51" y="66" width="2" height="19" fill="#FFFFFF" />
<rect x="83" y="66" width="2" height="1" fill="#B29476" />
<rect x="85" y="66" width="2" height="15" fill="#FFFFFF" />
<rect x="111" y="66" width="1" height="1" fill="#B29476" />
<rect x="112" y="66" width="1" height="12" fill="#FFFFFF" />
<rect x="47" y="67" width="1" height="1" fill="#FFFFFF" />
<rect x="48" y="67" width="2" height="1" fill="#B29476" />
<rect x="50" y="67" width="1" height="19" fill="#FFFFFF" />
<rect x="81" y="67" width="1" height="1" fill="#FFFFFF" />
<rect x="82" y="67" width="1" height="1" fill="#B29476" />
<rect x="83" y="67" width="2" height="15" fill="#FFFFFF" />
<rect x="109" y="67" width="2" height="1" fill="#B29476" />
<rect x="111" y="67" width="1" height="11" fill="#FFFFFF" />
<rect x="113" y="67" width="1" height="10" fill="#FFFFFF" />
<rect x="45" y="68" width="1" height="1" fill="#FFFFFF" />
<rect x="46" y="68" width="2" height="1" fill="#B29476" />
<rect x="48" y="68" width="2" height="19" fill="#FFFFFF" />
<rect x="80" y="68" width="2" height="1" fill="#B29476" />
<rect x="82" y="68" width="1" height="15" fill="#FFFFFF" />
<rect x="107" y="68" width="2" height="1" fill="#B29476" />
<rect x="109" y="68" width="2" height="11" fill="#FFFFFF" />
<rect x="32" y="69" width="1" height="2" fill="#FFFFFF" />
<rect x="45" y="69" width="1" height="1" fill="#B29476" />
<rect x="46" y="69" width="2" height="19" fill="#FFFFFF" />
<rect x="59" y="69" width="3" height="11" fill="#FFFFFF" />
<rect x="62" y="69" width="6" height="3" fill="#000000" />
<rect x="71" y="69" width="6" height="3" fill="#000000" />
<rect x="77" y="69" width="1" height="1" fill="#F1EBDB" />
<rect x="78" y="69" width="2" height="1" fill="#B29476" />
<rect x="80" y="69" width="2" height="15" fill="#FFFFFF" />
<rect x="106" y="69" width="1" height="1" fill="#B29476" />
<rect x="107" y="69" width="2" height="11" fill="#FFFFFF" />
<rect x="114" y="69" width="1" height="7" fill="#FFFFFF" />
<rect x="42" y="70" width="1" height="1" fill="#FFFFFF" />
<rect x="43" y="70" width="2" height="1" fill="#B29476" />
<rect x="45" y="70" width="1" height="19" fill="#FFFFFF" />
<rect x="77" y="70" width="1" height="1" fill="#B29476" />
<rect x="78" y="70" width="2" height="15" fill="#FFFFFF" />
<rect x="104" y="70" width="2" height="1" fill="#B29476" />
<rect x="106" y="70" width="1" height="11" fill="#FFFFFF" />
<rect x="41" y="71" width="2" height="1" fill="#B29476" />
<rect x="43" y="71" width="2" height="17" fill="#FFFFFF" />
<rect x="77" y="71" width="1" height="15" fill="#FFFFFF" />
<rect x="102" y="71" width="2" height="1" fill="#B29476" />
<rect x="104" y="71" width="2" height="11" fill="#FFFFFF" />
<rect x="115" y="71" width="1" height="5" fill="#FFFFFF" />
<rect x="34" y="72" width="3" height="2" fill="#FFFFFF" />
<rect x="40" y="72" width="1" height="1" fill="#B29476" />
<rect x="41" y="72" width="2" height="13" fill="#FFFFFF" />
<rect x="62" y="72" width="11" height="1" fill="#FFFFFF" />
<rect x="73" y="72" width="2" height="1" fill="#B29476" />
<rect x="75" y="72" width="2" height="15" fill="#FFFFFF" />
<rect x="100" y="72" width="1" height="1" fill="#FFFFFF" />
<rect x="101" y="72" width="1" height="1" fill="#B29476" />
<rect x="102" y="72" width="2" height="11" fill="#FFFFFF" />
<rect x="116" y="72" width="1" height="3" fill="#FFFFFF" />
<rect x="38" y="73" width="2" height="1" fill="#B29476" />
<rect x="40" y="73" width="1" height="10" fill="#FFFFFF" />
<rect x="62" y="73" width="10" height="1" fill="#FFFFFF" />
<rect x="72" y="73" width="1" height="1" fill="#B29476" />
<rect x="73" y="73" width="2" height="15" fill="#FFFFFF" />
<rect x="99" y="73" width="2" height="1" fill="#B29476" />
<rect x="101" y="73" width="1" height="11" fill="#FFFFFF" />
<rect x="35" y="74" width="1" height="1" fill="#FFFFFF" />
<rect x="36" y="74" width="2" height="1" fill="#B29476" />
<rect x="38" y="74" width="2" height="6" fill="#FFFFFF" />
<rect x="62" y="74" width="8" height="1" fill="#FFFFFF" />
<rect x="70" y="74" width="2" height="1" fill="#B29476" />
<rect x="72" y="74" width="1" height="15" fill="#FFFFFF" />
<rect x="97" y="74" width="2" height="1" fill="#B29476" />
<rect x="99" y="74" width="2" height="11" fill="#FFFFFF" />
<rect x="117" y="74" width="1" height="1" fill="#FFFFFF" />
<rect x="35" y="75" width="1" height="1" fill="#B29476" />
<rect x="36" y="75" width="2" height="2" fill="#FFFFFF" />
<rect x="62" y="75" width="6" height="1" fill="#FFFFFF" />
<rect x="68" y="75" width="2" height="1" fill="#B29476" />
<rect x="70" y="75" width="2" height="15" fill="#FFFFFF" />
<rect x="95" y="75" width="2" height="1" fill="#B29476" />
<rect x="97" y="75" width="2" height="11" fill="#FFFFFF" />
<rect x="116" y="75" width="2" height="1" fill="#B29476" />
<rect x="118" y="75" width="1" height="12" fill="#FFFFFF" />
<rect x="62" y="76" width="5" height="1" fill="#FFFFFF" />
<rect x="67" y="76" width="1" height="1" fill="#B29476" />
<rect x="68" y="76" width="2" height="15" fill="#FFFFFF" />
<rect x="94" y="76" width="1" height="1" fill="#B29476" />
<rect x="95" y="76" width="2" height="11" fill="#FFFFFF" />
<rect x="114" y="76" width="2" height="1" fill="#B29476" />
<rect x="116" y="76" width="2" height="11" fill="#FFFFFF" />
<rect x="37" y="77" width="1" height="2" fill="#FFFFFF" />
<rect x="62" y="77" width="3" height="1" fill="#FFFFFF" />
<rect x="65" y="77" width="2" height="1" fill="#B29476" />
<rect x="67" y="77" width="1" height="15" fill="#FFFFFF" />
<rect x="92" y="77" width="2" height="1" fill="#B29476" />
<rect x="94" y="77" width="1" height="12" fill="#FFFFFF" />
<rect x="113" y="77" width="1" height="1" fill="#B29476" />
<rect x="114" y="77" width="2" height="12" fill="#FFFFFF" />
<rect x="119" y="77" width="1" height="9" fill="#FFFFFF" />
<rect x="62" y="78" width="1" height="1" fill="#FFFFFF" />
<rect x="63" y="78" width="2" height="1" fill="#B29476" />
<rect x="65" y="78" width="2" height="15" fill="#FFFFFF" />
<rect x="90" y="78" width="2" height="1" fill="#B29476" />
<rect x="92" y="78" width="2" height="11" fill="#FFFFFF" />
<rect x="111" y="78" width="2" height="1" fill="#B29476" />
<rect x="113" y="78" width="1" height="12" fill="#FFFFFF" />
<rect x="120" y="78" width="1" height="7" fill="#FFFFFF" />
<rect x="62" y="79" width="1" height="1" fill="#B29476" />
<rect x="63" y="79" width="2" height="15" fill="#FFFFFF" />
<rect x="88" y="79" width="1" height="1" fill="#FFFFFF" />
<rect x="89" y="79" width="1" height="1" fill="#B29476" />
<rect x="90" y="79" width="2" height="11" fill="#FFFFFF" />
<rect x="109" y="79" width="2" height="1" fill="#B29476" />
<rect x="111" y="79" width="2" height="11" fill="#FFFFFF" />
<rect x="39" y="80" width="1" height="2" fill="#FFFFFF" />
<rect x="59" y="80" width="1" height="1" fill="#FFFFFF" />
<rect x="60" y="80" width="2" height="1" fill="#B29476" />
<rect x="62" y="80" width="1" height="15" fill="#FFFFFF" />
<rect x="87" y="80" width="2" height="1" fill="#B29476" />
<rect x="89" y="80" width="1" height="12" fill="#FFFFFF" />
<rect x="107" y="80" width="1" height="1" fill="#FFFFFF" />
<rect x="108" y="80" width="1" height="1" fill="#B29476" />
<rect x="109" y="80" width="2" height="12" fill="#FFFFFF" />
<rect x="121" y="80" width="1" height="5" fill="#FFFFFF" />
<rect x="58" y="81" width="2" height="1" fill="#B29476" />
<rect x="60" y="81" width="2" height="15" fill="#FFFFFF" />
<rect x="85" y="81" width="2" height="1" fill="#B29476" />
<rect x="87" y="81" width="2" height="11" fill="#FFFFFF" />
<rect x="106" y="81" width="2" height="1" fill="#B29476" />
<rect x="108" y="81" width="1" height="12" fill="#FFFFFF" />
<rect x="122" y="81" width="1" height="3" fill="#FFFFFF" />
<rect x="56" y="82" width="2" height="1" fill="#B29476" />
<rect x="58" y="82" width="2" height="15" fill="#FFFFFF" />
<rect x="83" y="82" width="1" height="1" fill="#FFFFFF" />
<rect x="84" y="82" width="1" height="1" fill="#B29476" />
<rect x="85" y="82" width="2" height="12" fill="#FFFFFF" />
<rect x="104" y="82" width="1" height="1" fill="#FFFFFF" />
<rect x="105" y="82" width="1" height="1" fill="#B29476" />
<rect x="106" y="82" width="2" height="12" fill="#FFFFFF" />
<rect x="55" y="83" width="1" height="1" fill="#B29476" />
<rect x="56" y="83" width="2" height="15" fill="#FFFFFF" />
<rect x="82" y="83" width="2" height="1" fill="#B29476" />
<rect x="84" y="83" width="1" height="12" fill="#FFFFFF" />
<rect x="102" y="83" width="1" height="1" fill="#FFFFFF" />
<rect x="103" y="83" width="2" height="1" fill="#B29476" />
<rect x="105" y="83" width="1" height="12" fill="#FFFFFF" />
<rect x="53" y="84" width="2" height="1" fill="#B29476" />
<rect x="55" y="84" width="1" height="15" fill="#FFFFFF" />
<rect x="80" y="84" width="2" height="1" fill="#B29476" />
<rect x="82" y="84" width="2" height="11" fill="#FFFFFF" />
<rect x="101" y="84" width="2" height="1" fill="#B29476" />
<rect x="103" y="84" width="2" height="12" fill="#FFFFFF" />
<rect x="42" y="85" width="1" height="1" fill="#FFFFFF" />
<rect x="51" y="85" width="2" height="1" fill="#B29476" />
<rect x="53" y="85" width="2" height="15" fill="#FFFFFF" />
<rect x="78" y="85" width="1" height="1" fill="#FFFFFF" />
<rect x="79" y="85" width="1" height="1" fill="#B29476" />
<rect x="80" y="85" width="2" height="12" fill="#FFFFFF" />
<rect x="99" y="85" width="1" height="1" fill="#FFFFFF" />
<rect x="100" y="85" width="1" height="1" fill="#B29476" />
<rect x="101" y="85" width="2" height="12" fill="#FFFFFF" />
<rect x="50" y="86" width="1" height="1" fill="#B29476" />
<rect x="51" y="86" width="2" height="14" fill="#FFFFFF" />
<rect x="77" y="86" width="2" height="1" fill="#B29476" />
<rect x="79" y="86" width="1" height="12" fill="#FFFFFF" />
<rect x="97" y="86" width="1" height="1" fill="#FFFFFF" />
<rect x="98" y="86" width="2" height="1" fill="#B29476" />
<rect x="100" y="86" width="1" height="12" fill="#FFFFFF" />
<rect x="48" y="87" width="2" height="1" fill="#B29476" />
<rect x="50" y="87" width="1" height="12" fill="#FFFFFF" />
<rect x="75" y="87" width="2" height="1" fill="#B29476" />
<rect x="77" y="87" width="2" height="11" fill="#FFFFFF" />
<rect x="95" y="87" width="1" height="1" fill="#FFFFFF" />
<rect x="96" y="87" width="2" height="1" fill="#B29476" />
<rect x="98" y="87" width="2" height="12" fill="#FFFFFF" />
<rect x="116" y="87" width="1" height="1" fill="#FFFFFF" />
<rect x="44" y="88" width="1" height="1" fill="#FFFFFF" />
<rect x="46" y="88" width="2" height="1" fill="#B29476" />
<rect x="48" y="88" width="2" height="8" fill="#FFFFFF" />
<rect x="73" y="88" width="1" height="1" fill="#FFFFFF" />
<rect x="74" y="88" width="1" height="1" fill="#B29476" />
<rect x="75" y="88" width="2" height="12" fill="#FFFFFF" />
<rect x="95" y="88" width="1" height="1" fill="#B29476" />
<rect x="96" y="88" width="2" height="12" fill="#FFFFFF" />
<rect x="45" y="89" width="1" height="1" fill="#B29476" />
<rect x="46" y="89" width="2" height="3" fill="#FFFFFF" />
<rect x="72" y="89" width="2" height="1" fill="#B29476" />
<rect x="74" y="89" width="1" height="12" fill="#FFFFFF" />
<rect x="92" y="89" width="1" height="1" fill="#FFFFFF" />
<rect x="93" y="89" width="2" height="1" fill="#B29476" />
<rect x="95" y="89" width="1" height="12" fill="#FFFFFF" />
<rect x="45" y="90" width="1" height="1" fill="#FFFFFF" />
<rect x="70" y="90" width="2" height="1" fill="#B29476" />
<rect x="72" y="90" width="2" height="11" fill="#FFFFFF" />
<rect x="90" y="90" width="1" height="1" fill="#FFFFFF" />
<rect x="91" y="90" width="2" height="1" fill="#B29476" />
<rect x="93" y="90" width="2" height="12" fill="#FFFFFF" />
<rect x="111" y="90" width="1" height="1" fill="#FFFFFF" />
<rect x="68" y="91" width="1" height="1" fill="#FFFFFF" />
<rect x="69" y="91" width="1" height="1" fill="#B29476" />
<rect x="70" y="91" width="2" height="12" fill="#FFFFFF" />
<rect x="90" y="91" width="1" height="1" fill="#B29476" />
<rect x="91" y="91" width="2" height="12" fill="#FFFFFF" />
<rect x="47" y="92" width="1" height="2" fill="#FFFFFF" />
<rect x="67" y="92" width="2" height="1" fill="#B29476" />
<rect x="69" y="92" width="1" height="12" fill="#FFFFFF" />
<rect x="87" y="92" width="1" height="1" fill="#FFFFFF" />
<rect x="88" y="92" width="2" height="1" fill="#B29476" />
<rect x="90" y="92" width="1" height="12" fill="#FFFFFF" />
<rect x="65" y="93" width="2" height="1" fill="#B29476" />
<rect x="67" y="93" width="2" height="12" fill="#FFFFFF" />
<rect x="87" y="93" width="1" height="1" fill="#B29476" />
<rect x="88" y="93" width="2" height="12" fill="#FFFFFF" />
<rect x="63" y="94" width="2" height="1" fill="#B29476" />
<rect x="65" y="94" width="2" height="12" fill="#FFFFFF" />
<rect x="85" y="94" width="2" height="1" fill="#B29476" />
<rect x="87" y="94" width="1" height="12" fill="#FFFFFF" />
<rect x="62" y="95" width="1" height="1" fill="#B29476" />
<rect x="63" y="95" width="2" height="12" fill="#FFFFFF" />
<rect x="82" y="95" width="1" height="1" fill="#FFFFFF" />
<rect x="83" y="95" width="2" height="1" fill="#B29476" />
<rect x="85" y="95" width="2" height="12" fill="#FFFFFF" />
<rect x="49" y="96" width="1" height="1" fill="#FFFFFF" />
<rect x="60" y="96" width="2" height="1" fill="#B29476" />
<rect x="62" y="96" width="1" height="12" fill="#FFFFFF" />
<rect x="82" y="96" width="1" height="1" fill="#B29476" />
<rect x="83" y="96" width="2" height="12" fill="#FFFFFF" />
<rect x="58" y="97" width="2" height="1" fill="#B29476" />
<rect x="60" y="97" width="2" height="12" fill="#FFFFFF" />
<rect x="80" y="97" width="2" height="1" fill="#B29476" />
<rect x="82" y="97" width="1" height="12" fill="#FFFFFF" />
<rect x="56" y="98" width="1" height="1" fill="#FFFFFF" />
<rect x="57" y="98" width="1" height="1" fill="#B29476" />
<rect x="58" y="98" width="2" height="12" fill="#FFFFFF" />
<rect x="77" y="98" width="1" height="1" fill="#FFFFFF" />
<rect x="78" y="98" width="2" height="1" fill="#B29476" />
<rect x="80" y="98" width="2" height="12" fill="#FFFFFF" />
<rect x="55" y="99" width="2" height="1" fill="#B29476" />
<rect x="57" y="99" width="1" height="10" fill="#FFFFFF" />
<rect x="77" y="99" width="1" height="1" fill="#B29476" />
<rect x="78" y="99" width="2" height="12" fill="#FFFFFF" />
<rect x="52" y="100" width="1" height="1" fill="#FFFFFF" />
<rect x="53" y="100" width="2" height="1" fill="#B29476" />
<rect x="55" y="100" width="2" height="6" fill="#FFFFFF" />
<rect x="75" y="100" width="2" height="1" fill="#B29476" />
<rect x="77" y="100" width="1" height="13" fill="#FFFFFF" />
<rect x="96" y="100" width="1" height="1" fill="#FFFFFF" />
<rect x="52" y="101" width="1" height="1" fill="#B29476" />
<rect x="53" y="101" width="2" height="2" fill="#FFFFFF" />
<rect x="72" y="101" width="1" height="1" fill="#FFFFFF" />
<rect x="73" y="101" width="2" height="1" fill="#B29476" />
<rect x="75" y="101" width="2" height="12" fill="#FFFFFF" />
<rect x="72" y="102" width="1" height="1" fill="#B29476" />
<rect x="73" y="102" width="2" height="13" fill="#FFFFFF" />
<rect x="54" y="103" width="1" height="2" fill="#FFFFFF" />
<rect x="70" y="103" width="2" height="1" fill="#B29476" />
<rect x="72" y="103" width="1" height="13" fill="#FFFFFF" />
<rect x="91" y="103" width="1" height="1" fill="#FFFFFF" />
<rect x="69" y="104" width="1" height="1" fill="#B29476" />
<rect x="70" y="104" width="2" height="12" fill="#FFFFFF" />
<rect x="67" y="105" width="2" height="1" fill="#B29476" />
<rect x="69" y="105" width="1" height="13" fill="#FFFFFF" />
<rect x="88" y="105" width="1" height="1" fill="#FFFFFF" />
<rect x="56" y="106" width="1" height="2" fill="#FFFFFF" />
<rect x="65" y="106" width="2" height="1" fill="#B29476" />
<rect x="67" y="106" width="2" height="12" fill="#FFFFFF" />
<rect x="63" y="107" width="1" height="1" fill="#FFFFFF" />
<rect x="64" y="107" width="1" height="1" fill="#B29476" />
<rect x="65" y="107" width="2" height="13" fill="#FFFFFF" />
<rect x="85" y="107" width="1" height="1" fill="#FFFFFF" />
<rect x="62" y="108" width="2" height="1" fill="#B29476" />
<rect x="64" y="108" width="1" height="10" fill="#FFFFFF" />
<rect x="83" y="108" width="1" height="1" fill="#FFFFFF" />
<rect x="60" y="109" width="2" height="1" fill="#B29476" />
<rect x="62" y="109" width="2" height="7" fill="#FFFFFF" />
<rect x="58" y="110" width="1" height="1" fill="#FFFFFF" />
<rect x="59" y="110" width="1" height="1" fill="#B29476" />
<rect x="60" y="110" width="2" height="4" fill="#FFFFFF" />
<rect x="80" y="110" width="1" height="1" fill="#FFFFFF" />
<rect x="59" y="111" width="1" height="2" fill="#FFFFFF" />
<rect x="78" y="111" width="1" height="1" fill="#FFFFFF" />
<rect x="75" y="113" width="1" height="1" fill="#FFFFFF" />
<rect x="61" y="114" width="1" height="2" fill="#FFFFFF" />
<rect x="63" y="116" width="1" height="1" fill="#FFFFFF" />
<rect x="70" y="116" width="1" height="1" fill="#FFFFFF" />
<rect x="67" y="118" width="1" height="1" fill="#FFFFFF" />
</svg>